<?xml version="1.0" standalone="no"?>
<!DOCTYPE svg PUBLIC "-//W3C//DTD SVG 1.1//EN" "http://www.w3.org/Graphics/SVG/1.1/DTD/svg11.dtd" >
<!--
2013-9-30: Created.
-->
<svg>
<metadata>
Created by iconfont
</metadata>
<defs>

<font id="iconfont" horiz-adv-x="1024" >
  <font-face
    font-family="iconfont"
    font-weight="500"
    font-stretch="normal"
    units-per-em="1024"
    ascent="896"
    descent="-128"
  />
    <missing-glyph />
    
    <glyph glyph-name="x" unicode="x" horiz-adv-x="1001"
d="M281 543q-27 -1 -53 -1h-83q-18 0 -36.5 -6t-32.5 -18.5t-23 -32t-9 -45.5v-76h912v41q0 16 -0.5 30t-0.5 18q0 13 -5 29t-17 29.5t-31.5 22.5t-49.5 9h-133v-97h-438v97zM955 310v-52q0 -23 0.5 -52t0.5 -58t-10.5 -47.5t-26 -30t-33 -16t-31.5 -4.5q-14 -1 -29.5 -0.5
t-29.5 0.5h-32l-45 128h-439l-44 -128h-29h-34q-20 0 -45 1q-25 0 -41 9.5t-25.5 23t-13.5 29.5t-4 30v167h911zM163 247q-12 0 -21 -8.5t-9 -21.5t9 -21.5t21 -8.5q13 0 22 8.5t9 21.5t-9 21.5t-22 8.5zM316 123q-8 -26 -14 -48q-5 -19 -10.5 -37t-7.5 -25t-3 -15t1 -14.5
t9.5 -10.5t21.5 -4h37h67h81h80h64h36q23 0 34 12t2 38q-5 13 -9.5 30.5t-9.5 34.5q-5 19 -11 39h-368zM336 498v228q0 11 2.5 23t10 21.5t20.5 15.5t34 6h188q31 0 51.5 -14.5t20.5 -52.5v-227h-327z" />
    

    
    <glyph glyph-name="weixiao" unicode="&#58883;" d="M500-200c276.1426 0 500 223.8574 500 500S776.1426 800 500 800 0 576.1426 0 300 223.8574-200 500-200zM500 706.25c224.3652 0 406.25-181.8848 406.25-406.25s-181.8848-406.25-406.25-406.25S93.75 75.6348 93.75 300 275.6348 706.25 500 706.25zM250 487.5c0 34.5176 27.9824 62.5 62.5 62.5s62.5-27.9824 62.5-62.5-27.9824-62.5-62.5-62.5S250 452.9824 250 487.5zM625 487.5c0 34.5176 27.9824 62.5 62.5 62.5s62.5-27.9824 62.5-62.5-27.9824-62.5-62.5-62.5S625 452.9824 625 487.5zM687.5957 187.4414l80.3984-48.2383C713.3438 48.3145 613.7793-12.5 500-12.5s-213.3438 60.8145-267.9941 151.7031l80.3984 48.2383C350.6602 123.8203 420.3555 81.25 500 81.25 579.6426 81.25 649.3398 123.8203 687.5957 187.4414z"  horiz-adv-x="1000" />

    
    <glyph glyph-name="tupian" unicode="&#58887;" d="M843.238588 611.379796 186.091814 611.379796c-25.798573 0-46.939055-21.104667-46.939055-46.938032l0-539.941376c0-25.798573 21.140483-46.938032 46.939055-46.938032l657.146774 0c25.798573 0 46.939055 21.139459 46.939055 46.938032L890.177644 564.441764C890.177644 590.275129 869.037161 611.379796 843.238588 611.379796zM843.238588 24.500389 186.091814 24.500389 186.091814 162.815571l188.373275 182.563966 194.19691-194.003506c7.995091-9.705036 22.252817-8.469905 32.364105-0.847298l85.724407 77.609589 154.600077-158.675906c0.605797-0.600681 1.237177-1.155313 1.888-1.676176L843.238588 24.500389zM843.238588 134.729909 705.333752 275.888859c-8.363482 8.223289-21.475104 9.069563-30.758538 2.01182l-88.423889-77.044724L391.846968 393.095281c-4.164856 5.01113-10.1645 8.082072-16.657378 8.505721-6.459109 0.212848-12.82919-1.905396-17.576307-6.352685L186.091814 228.349123 186.091814 564.441764l657.146774 0L843.238588 134.729909zM678.950871 376.543304c25.869181 0 46.833655 20.963451 46.833655 46.797839 0 25.834388-20.963451 46.832631-46.833655 46.832631s-46.833655-20.999266-46.833655-46.832631C632.11824 397.507778 653.081691 376.543304 678.950871 376.543304z"  horiz-adv-x="1024" />

    
    <glyph glyph-name="youxiang" unicode="&#59056;" d="M953.213817 705.096089 70.777997 705.096089c-0.766456 0-34.721803 3.446495-34.721803-34.618449l0-602.635253c0-19.137873 15.530718-34.666544 34.721803-34.666544L953.213817 33.175843c19.144012 0 34.729989 15.529695 34.729989 34.666544l0 602.635253C987.942783 705.096089 953.981297 705.096089 953.213817 705.096089L953.213817 705.096089zM853.641007 635.760954 511.995907 364.976738 170.350806 635.760954 853.641007 635.760954 853.641007 635.760954 853.641007 635.760954zM918.436756 102.571353 105.556081 102.571353 105.556081 598.684524l406.439826-322.232982 406.440849 322.232982L918.436756 102.571353 918.436756 102.571353 918.436756 102.571353zM918.436756 102.571353"  horiz-adv-x="1024" />

    
    <glyph glyph-name="xiugaiziliaoqsh" unicode="&#59116;" d="M430.093312 2.059264l-26.533888 0.4096c-83.80928 1.288192-150.944768 9.027584-199.538688 23.006208-31.261696 8.993792-54.85056 20.368384-72.116224 34.774016-21.061632 17.575936-32.195584 40.034304-32.195584 64.946176l0 22.689792c0 35.212288 25.404416 70.762496 75.506688 105.662464 37.095424 25.839616 87.113728 50.778112 140.857344 70.230016 0.503808 0.226304 5.808128 2.729984 9.187328 8.471552 3.853312 6.549504 3.980288 15.509504 0.386048 26.678272-23.815168 25.266176-44.106752 56.948736-58.853376 91.941888-16.27648 38.627328-24.880128 79.479808-24.880128 118.140928 0 60.095488 19.24608 110.669824 55.658496 146.253824 33.43872 32.68096 79.951872 50.67776 130.968576 50.67776 51.013632 0 97.577984-17.988608 131.113984-50.651136 36.568064-35.615744 55.896064-86.199296 55.896064-146.280448 0-75.019264-70.409216-188.368896-82.499584-207.276032-7.719936-25.239552-1.9968-35.697664 2.356224-37.799936 6.770688-2.243584 13.848576-4.731904 21.619712-7.604224l31.906816-11.784192L475.01312 191.715328c-6.95808-6.21568-11.948032-14.021632-14.436352-22.567936l-34.700288-118.219776c-2.008064-6.844416-2.239488-14.514176-0.684032-22.788096L430.093312 2.059264zM428.541952 722.596864c-66.097152 0-143.2832-40.223744-143.2832-153.586688 0-64.965632 29.338624-136.909824 74.744832-183.286784l3.158016-3.2256 1.608704-4.217856c8.833024-23.182336 9.131008-44.10368 0.883712-62.180352-8.221696-18.020352-23.764992-29.034496-34.578432-32.990208-108.977152-39.411712-188.020736-96.272384-188.020736-135.22432l0-22.69184c0-45.633536 86.403072-74.05568 238.098432-78.848 0.49152 5.73952 1.533952 11.343872 3.131392 16.786432l34.688 118.173696c4.68992 16.119808 13.928448 30.761984 26.720256 42.334208l65.144832 64.545792c-5.920768 3.930112-12.886016 10.344448-18.052096 20.53632-9.186304 18.125824-9.220096 41.373696-0.100352 69.103616l0.89088 2.70848 1.562624 2.38592c21.433344 32.789504 77.068288 130.144256 77.068288 186.089472C572.208128 682.372096 494.816256 722.596864 428.541952 722.596864zM478.96576 2.225152c-9.327616 0-18.091008 3.636224-24.6784 10.244096-8.991744 9.025536-12.352512 22.221824-8.779776 34.44224l34.731008 118.332416c1.82784 6.284288 5.479424 11.813888 10.846208 16.407552l248.86784 247.043072 64.108544-64.083968-0.159744-0.180224 0.049152-0.048128 0.162816 0.149504 68.296704-68.27008L622.906368 48.57344c-4.463616-4.992-9.77408-8.416256-15.794176-10.179584l-118.295552-34.73408C485.623808 2.707456 482.30912 2.225152 478.96576 2.225152zM518.342656 151.899136l-31.332352-106.747904L593.8176 76.51328l0.196608 0.197632 221.241344 219.6736-12.392448 12.386304-0.190464-0.17408-54.336512 54.416384 0.137216 0.151552-8.646656 8.641536L518.342656 151.899136zM877.867008 303.287296 746.478592 434.710528l29.99296 30.3104c10.638336 10.645504 24.718336 16.468992 39.71584 16.468992 15.154176 0 29.41952-5.925888 40.169472-16.683008l51.29728-51.257344c22.065152-22.109184 22.192128-57.87648 0.319488-79.787008L877.867008 303.287296zM803.94752 434.859008l73.746432-73.765888 1.427456 1.44384c6.039552 6.034432 5.911552 15.997952-0.28672 22.209536l-51.290112 51.247104c-3.063808 3.06688-7.093248 4.750336-11.35616 4.750336-4.110336 0-7.954432-1.58208-10.824704-4.4544L803.94752 434.859008zM840.316928 348.822528"  horiz-adv-x="1024" />

    
    <glyph glyph-name="caidan" unicode="&#58881;" d="M127.9994 137.566826c-33.998349 0-64.417725-28.629589-64.417725-62.627339 0-33.998949 30.419376-64.418125 64.417725-64.418125 33.997949 0 62.627938 30.419376 62.627938 64.418125C190.627139 108.937436 161.99715 137.566826 127.9994 137.566826zM127.9994 445.352947c-33.998349 0-64.417725-28.629989-64.417725-62.627938 0-34.006943 30.419376-62.642329 64.417725-62.642329 33.997949 0 62.627938 28.635585 62.627938 62.642329C190.627139 416.722958 161.99715 445.352947 127.9994 445.352947zM357.038912 633.237561l542.180602 0c32.209162 0 59.049764 25.051015 59.049764 57.259578 0 32.209162-26.840602 59.049764-59.049764 59.049764L357.038912 749.546903c-32.208563 0-59.049365-26.840802-59.049365-59.049764C297.989747 658.288376 324.830349 633.237561 357.038912 633.237561zM127.9994 754.914664c-33.998349 0-64.417725-30.419376-64.417725-64.417725 0-33.997949 30.419376-62.627938 64.417725-62.627938 33.997949 0 62.627938 28.629989 62.627938 62.627938C190.627139 724.495488 161.99715 754.914664 127.9994 754.914664zM899.219513 441.774373 357.038912 441.774373c-32.208563 0-59.049365-26.840802-59.049365-59.049365 0-32.216157 26.840802-59.062755 59.049365-59.062755l542.180602 0c32.209162 0 59.049764 26.846598 59.049764 59.062755C958.269277 414.933571 931.428675 441.774373 899.219513 441.774373zM899.219513 133.988252 357.038912 133.988252c-32.208563 0-59.049365-26.840802-59.049365-59.048765 0-32.209162 26.840802-59.049764 59.049365-59.049764l542.180602 0c32.209162 0 59.049764 26.840602 59.049764 59.049764C958.269277 107.14745 931.428675 133.988252 899.219513 133.988252z"  horiz-adv-x="1024" />

    
    <glyph glyph-name="zhizhang3" unicode="&#58957;" d="M867.256608 10.381697 867.256608 791.045623c0 34.088376-34.941813 57.828057-66.297962 57.828057L416.678516 848.87368c-15.839757 0-30.735002-6.16235-41.932018-17.373693l-169.597653-169.592536c-11.040451-11.04659-17.366529-26.322505-17.366529-41.915645l0-608.141664c0-32.697703 26.598798-59.295478 59.295478-59.295478l553.879829 0C832.313771-47.445336 867.256608-23.699516 867.256608 10.381697zM390.998647 806.872077l-0.819668-131.47438c0-16.750499-12.154831-28.913517-28.913517-28.913517L230.603587 646.48418 390.998647 806.872077zM216.696856 11.850142 216.696856 617.570663l144.567583 0c32.965809 0 57.828057 24.854061 57.828057 57.735959l0.889253 144.659681 380.975874 0c16.927531 0 37.384445-12.889565 37.384445-28.92068l0-780.664949c0-16.009625-20.456914-28.913517-37.384445-28.913517L247.078817-18.532843C230.321154-18.531819 216.696856-4.901381 216.696856 11.850142z"  horiz-adv-x="1024" />

    
    <glyph glyph-name="xiaoxi" unicode="&#58908;" d="M192.32-60.124c-41.193 0-65.913 10.996-71.52 31.811-2.574 9.578-2.574 28.167 26.4 45.011 23.302 13.571 44.596 33.927 63.447 60.611-110.574 81.076-173.564 199.396-173.564 327.709 0 234.087 212.989 424.56 474.764 424.56 261.971 0 475.069-190.451 475.069-424.56 0-234.131-213.12-424.626-475.047-424.626-46.56 0-93.076 6.284-138.393 18.676-63.534-43.527-134.574-59.193-181.156-59.193zM177.658-15.789c4.102-0.436 8.989-0.698 14.662-0.698 41.847 0 106.953 14.967 164.16 56.967l8.706 6.414 10.386-3.076c44.553-13.156 90.393-19.811 136.298-19.811 237.884 0 431.411 170.902 431.411 380.989 0 210.044-193.549 380.924-431.433 380.924-237.731 0-431.127-170.88-431.127-380.924 0-120.174 62.64-230.902 171.862-303.796l17.411-11.629-10.887-17.869c-23.171-38.073-50.553-67.44-81.447-87.491z"  horiz-adv-x="1024" />

    
    <glyph glyph-name="riji" unicode="&#58986;" d="M26.23241 896 26.23241 896 26.23241 896 26.23241 896zM26.23241 896M768.963868 692.121428l81.970667 78.890443c0 0.676276 0.690805 1.36708 2.068452 2.063169l6.165731 4.102562c2.728877 2.052602 5.799855 3.756499 9.210291 5.113013 3.410436 1.356514 7.512998 2.549242 12.295798 3.575543 4.788083 1.026301 9.576167 1.361797 14.36425 1.015734 4.788083-0.350025 10.252442-1.892779 16.391756-4.622977 6.144597-2.734161 11.949735-6.495943 17.414094-11.278743l55.083432-55.362132c2.734161-2.730198 5.640032-6.14988 8.724218-10.263009 3.080224-4.106524 4.788083-11.628769 5.113013-22.557486 0.330213-10.927397-4.282198-20.833776-13.838552-29.708571L894.774886 563.938162 768.963868 692.121428zM744.88212 669.068623 871.749819 543.100423 471.20584 154.850921 346.376213 278.791615ZM331.264362 261.466018 452.630718 141.119358 264.727834 86.976372ZM875.395366 433.872683l73.607041 68.657814 0-599.419169c-0.676276-0.676276-0.676276-3.233442 0-7.672821 0.681559-4.436737-1.713143-9.224821-7.182786-14.36425-5.464359-5.132825-13.657595-7.692634-24.590275-7.672821l-851.500862 0c-0.674955 0.681559-3.751216 0.3421-9.214254-1.017055-5.464359-1.35123-11.10307 0.866478-16.918775 6.655766-5.814384 5.794572-8.718935 14.84504-8.718935 27.150084l0 821.796253c-0.681559 2.734161-0.505886 5.638711 0.520415 8.718935 1.027622 3.085507 2.394702 6.156485 4.102562 9.215575 1.702576 3.05909 4.947906 5.794572 9.73599 8.19852 4.788083 2.403948 10.591901 3.596676 17.412773 3.575543l644.503762 0-65.57759-73.204181-536.817455-1.015734 0-742.321994 769.555292-1.018376L875.395366 433.872683zM867.470263 433.872683"  horiz-adv-x="1024" />

    
    <glyph glyph-name="shengji" unicode="&#58902;" d="M512 441.6c-147.2 0-268.8-121.6-268.8-268.8s121.6-268.8 268.8-268.8 268.8 121.6 268.8 268.8S659.2 441.6 512 441.6zM608 57.6 512 115.2l-96-57.6 32 102.4-89.6 70.4 115.2 0L512 326.4l38.4-96 115.2 0-89.6-70.4L608 57.6zM300.8 742.4l0-121.6c0-6.4 6.4-19.2 12.8-25.6L435.2 512C441.6 505.6 448 505.6 454.4 505.6l121.6 0c6.4 0 12.8 0 19.2 6.4l121.6 89.6c6.4 6.4 12.8 12.8 12.8 25.6L729.6 742.4c32 0 57.6 25.6 57.6 57.6s-25.6 57.6-57.6 57.6l-32 0L332.8 857.6 300.8 857.6c-32 0-57.6-25.6-57.6-57.6S268.8 742.4 300.8 742.4zM601.6 742.4l0-89.6c0-19.2-12.8-32-32-32S544 640 544 652.8L544 742.4 601.6 742.4zM480 742.4l0-89.6c0-19.2-12.8-32-32-32C435.2 627.2 422.4 640 422.4 652.8L422.4 742.4 480 742.4z"  horiz-adv-x="1024" />

    
    <glyph glyph-name="3" unicode="&#58888;" d="M788.466 879.914c-43.446-75.14-86.923-150.254-130.331-225.418-45.917-79.503-91.766-159.054-140.579-243.668-13.801 48.468-26.586 91.248-38.105 134.367-19.248 72.046-36.832 144.554-57.074 216.316-5.004 17.737-2.548 21.207 15.108 25.938 111.084 29.769 221.664 61.434 332.413 92.467 6.19 0 12.38 0 18.567 0zM234.973-111.914c93.060 161.473 181.22 314.43 272.668 473.108 33.921-127.095 66.372-248.672 99.513-372.829-125.044-33.694-244.893-65.979-372.179-100.276zM1006.227 110.144c-157.235 90.939-310.206 179.419-470.524 272.144 56.075 14.89 104.453 27.615 152.773 40.581 67.090 18.006 134.045 36.57 201.357 53.714 6.295 1.6 20.121-3.744 21.373-8.351 32.020-117.692 62.835-235.711 95.022-358.089zM487.701 387.633c-126.755-34.314-247.597-67.024-370.505-100.288-33.035 124.023-65.326 245.253-99.423 373.246 159.997-92.93 313.074-181.847 469.93-272.96zM901.396 499.924c-127.095-34.251-245.158-66.066-368.999-99.44 46.387 80.411 90.004 156.029 134.933 233.903 77.298-44.403 152.121-87.388 234.066-134.464zM485.818 358.998c-42.636-74.188-85.27-148.37-128.716-223.952-75.719 43.874-151.558 87.82-232.874 134.934 122.534 33.277 239.79 65.115 357.046 96.956 1.515-2.645 3.033-5.297 4.543-7.938zM499.371 406.638c-80.215 46.086-155.751 89.483-233.718 134.283 44.179 77.503 86.97 152.604 133.408 234.080 34.204-125.61 66.505-244.225 100.307-368.365zM624.976-4.458c-33.341 123.369-65.216 241.298-99.376 367.682 81.552-46.818 156.090-89.61 233.708-134.172-44.105-76.669-88.078-153.113-134.331-233.51z"  horiz-adv-x="1024" />

    
    <glyph glyph-name="cuowu" unicode="&#59291;" d="M928.57088 855.9232l67.8816-67.8816-855.30816-855.30816-67.8816 67.8816 855.30816 855.30816ZM998.016 0.33792l-67.8816-67.8816-855.30816 855.30816 67.8816 67.8816 855.30816-855.30816Z"  horiz-adv-x="1024" />

    
    <glyph glyph-name="mima" unicode="&#59058;" d="M757.621117 496.508423l-27.533077 0L730.08804 603.190141c0 128.253012-91.396593 228.690516-221.245963 228.690516-130.370233 0-219.212654-102.577237-219.212654-228.690516L289.629423 496.508423l-27.533077 0c-60.71992 0-110.107747-50.130747-110.107747-111.790062l0-335.327208c0-61.659315 49.387827-111.790062 110.107747-111.790062l495.52477 0c60.71992 0 110.109794 50.130747 110.109794 111.790062l0 335.327208C867.73091 446.377676 818.341037 496.508423 757.621117 496.508423L757.621117 496.508423zM344.674087 603.190141c0 95.241154 64.147996 172.794461 164.169013 172.794461 98.974176 0 166.178787-75.894528 166.178787-172.794461L675.021887 496.508423 344.674087 496.508423 344.674087 603.190141 344.674087 603.190141zM812.663734 49.391153c0-30.829146-24.694425-55.895031-55.042617-55.895031L262.096347-6.503878c-30.349215 0-55.06513 25.065885-55.06513 55.895031l0 335.327208c0 30.830169 24.715915 55.895031 55.06513 55.895031l495.52477 0c30.348192 0 55.042617-25.066909 55.042617-55.895031L812.663734 49.391153 812.663734 49.391153zM509.846964 328.866309c-30.392194 0-55.04364-25.065885-55.04364-55.93801 0-20.691251 11.08036-38.740326 27.533077-48.40443l0-91.335195c0-15.414061 12.314467-27.90249 27.510564-27.90249 15.217586 0 27.533077 12.488429 27.533077 27.90249l0 91.338265c16.455787 9.665127 27.5341 27.713178 27.5341 48.40136C564.915164 303.801447 540.261671 328.866309 509.846964 328.866309L509.846964 328.866309z"  horiz-adv-x="1024" />

    
    <glyph glyph-name="sousuo" unicode="&#58939;" d="M1007.483871-61.935484l-303.896774 303.896774c132.129032 155.251613 125.522581 389.780645-23.122581 535.122581-155.251613 155.251613-406.296774 155.251613-561.548387 0-155.251613-155.251613-155.251613-406.296774 0-561.548387 145.341935-145.341935 379.870968-155.251613 535.122581-23.122581l303.896774-303.896774c13.212903-13.212903 33.032258-13.212903 46.245161 0C1020.696774-98.270968 1020.696774-75.148387 1007.483871-61.935484zM168.464516 265.083871C39.63871 393.909677 39.63871 602.012903 168.464516 730.83871 297.290323 859.664516 505.393548 859.664516 634.219355 730.83871c128.825806-128.825806 128.825806-336.929032 0-465.754839C505.393548 136.258065 297.290323 136.258065 168.464516 265.083871z"  horiz-adv-x="1024" />

    
    <glyph glyph-name="fenxiang" unicode="&#58933;" d="M788.673978 499.876371c-57.172483 0-108.219342 24.502493-143.952144 63.298106L426.241276 438.62014c5.104686-18.376869 9.188435-36.753739 9.188435-56.151546 0-31.649053-8.167498-61.256231-21.439681-88.821535L624.303091 173.176471c34.711864 54.109671 95.968096 90.86341 165.391824 90.863409 108.219342 0 196.01994-87.800598 196.01994-196.01994s-87.800598-196.01994-196.01994-196.01994S593.674975-40.199402 593.674975 68.01994c0 7.14656 1.020937 14.293121 2.041874 21.439681L356.817547 225.244267l1.020938 1.020937c-32.66999-25.52343-73.507478-40.837488-118.428714-40.837487C130.169492 185.427717 42.368893 273.228315 42.368893 382.468594c0 108.219342 87.800598 196.01994 196.01994 196.01994 57.172483 0 108.219342-24.502493 143.952144-63.298105l218.480558 124.554337c-5.104686 18.376869-9.188435 36.753739-9.188434 56.151545C591.633101 804.115653 680.454636 892.937188 788.673978 892.937188S984.693918 804.115653 984.693918 695.896311c0-108.219342-87.800598-196.01994-196.01994-196.01994z m0-550.285145c65.33998 0 117.407777 53.088734 117.407777 117.407777 0 65.33998-53.088734 117.407777-117.407777 117.407777s-117.407777-53.088734-117.407777-117.407777c-1.020937-64.319043 52.067797-117.407777 117.407777-117.407777zM238.388833 499.876371c-65.33998 0-117.407777-53.088734-117.407776-117.407777 0-65.33998 53.088734-117.407777 117.407776-117.407776 65.33998 0 117.407777 53.088734 117.407777 117.407776 1.020937 64.319043-52.067797 117.407777-117.407777 117.407777zM788.673978 814.325025c-65.33998 0-117.407777-53.088734-117.407777-117.407777S724.354935 579.509472 788.673978 579.509472s117.407777 53.088734 117.407777 117.407776S852.993021 814.325025 788.673978 814.325025z"  horiz-adv-x="1024" />

    
    <glyph glyph-name="shuxie" unicode="&#58920;" d="M568.888889 327.111111L455.111111 440.888889l455.111111 455.111111 113.777778-113.777778z m-227.555556-113.777778l56.888889 170.666667 113.777778-113.777778zM113.777778 554.666667v-455.111111a202.979556 202.979556 0 0 1 113.777778-113.777778h512a202.979556 202.979556 0 0 1 113.777777 113.777778V362.382222h113.777778V-14.222222a113.777778 113.777778 0 0 0-113.777778-113.777778H113.777778a113.777778 113.777778 0 0 0-113.777778 113.777778V668.444444a113.777778 113.777778 0 0 0 113.777778 113.777778h249.514666v-113.777778H227.555556a202.979556 202.979556 0 0 1-113.777778-113.777777z"  horiz-adv-x="1024" />

    
    <glyph glyph-name="calendar" unicode="&#58889;" d="M832 746.667h-128v42.667c0 11.782-9.551 21.333-21.333 21.333s-21.333-9.551-21.333-21.333v-42.667h-298.667v42.667c-0 11.782-9.551 21.333-21.333 21.333s-21.333-9.551-21.333-21.333v-42.667h-128c-47.061 0-85.333-38.272-85.333-85.333v-597.333c0-47.061 38.272-85.333 85.333-85.333h640c47.061 0 85.333 38.272 85.333 85.333v597.333c0 47.061-38.272 85.333-85.333 85.333zM149.333 661.333c0 23.531 19.136 42.667 42.667 42.667h128v-42.667c0-11.782 9.551-21.333 21.333-21.333s21.333 9.551 21.333 21.333l0 42.667h298.667v-42.667c0-11.782 9.551-21.333 21.333-21.333s21.333 9.551 21.333 21.333v42.667h128c23.531 0 42.667-19.136 42.667-42.667v-128h-725.333v128zM874.667 64c0-23.531-19.136-42.667-42.667-42.667h-640c-23.531 0-42.667 19.136-42.667 42.667v426.667h725.333v-426.667zM320 362.667h42.667c11.782 0 21.333 9.551 21.333 21.333s-9.551 21.333-21.333 21.333l-42.667-0c-11.782 0-21.333-9.551-21.333-21.333s9.551-21.333 21.333-21.333zM661.333 362.667h42.667c11.782 0 21.333 9.551 21.333 21.333s-9.551 21.333-21.333 21.333l-42.667-0c-11.782 0-21.333-9.551-21.333-21.333s9.551-21.333 21.333-21.333zM490.667 362.667h42.667c11.782 0 21.333 9.551 21.333 21.333s-9.551 21.333-21.333 21.333l-42.667-0c-11.782 0-21.333-9.551-21.333-21.333s9.551-21.333 21.333-21.333zM320 234.667h42.667c0 0 0 0 0 0 11.782 0 21.333 9.551 21.333 21.333 0 11.782-9.551 21.333-21.333 21.333-0 0-0 0-0 0l-42.667-0c-0 0-0 0-0 0-11.782 0-21.333-9.551-21.333-21.333 0-11.782 9.551-21.333 21.333-21.333 0 0 0 0 0 0zM661.333 234.667h42.667c0 0 0 0 0 0 11.782 0 21.333 9.551 21.333 21.333 0 11.782-9.551 21.333-21.333 21.333-0 0-0 0-0 0l-42.667-0c-0 0-0 0-0 0-11.782 0-21.333-9.551-21.333-21.333 0-11.782 9.551-21.333 21.333-21.333 0 0 0 0 0 0zM490.667 234.667h42.667c0 0 0 0 0 0 11.782 0 21.333 9.551 21.333 21.333 0 11.782-9.551 21.333-21.333 21.333-0 0-0 0-0 0l-42.667-0c-0 0-0 0-0 0-11.782 0-21.333-9.551-21.333-21.333 0-11.782 9.551-21.333 21.333-21.333 0 0 0 0 0 0zM320 106.667h42.667c0 0 0 0 0 0 11.782 0 21.333 9.551 21.333 21.333 0 11.782-9.551 21.333-21.333 21.333-0 0-0 0-0 0l-42.667-0c-0 0-0 0-0 0-11.782 0-21.333-9.551-21.333-21.333 0-11.782 9.551-21.333 21.333-21.333 0 0 0 0 0 0zM661.333 106.667h42.667c0 0 0 0 0 0 11.782 0 21.333 9.551 21.333 21.333 0 11.782-9.551 21.333-21.333 21.333-0 0-0 0-0 0l-42.667-0c-0 0-0 0-0 0-11.782 0-21.333-9.551-21.333-21.333 0-11.782 9.551-21.333 21.333-21.333 0 0 0 0 0 0zM490.667 106.667h42.667c0 0 0 0 0 0 11.782 0 21.333 9.551 21.333 21.333 0 11.782-9.551 21.333-21.333 21.333-0 0-0 0-0 0l-42.667-0c-0 0-0 0-0 0-11.782 0-21.333-9.551-21.333-21.333 0-11.782 9.551-21.333 21.333-21.333 0 0 0 0 0 0z"  horiz-adv-x="1024" />

    
    <glyph glyph-name="wode" unicode="&#58983;" d="M680.451244-127.983724l0 45.313133 75.505611 0 0-45.313133-75.505611 0ZM999.775362-56.237931c-13.932486 203.144111-152.85044 371.847637-340.629754 430.865388a19.531523 19.531523 0 0 0-4.88288 34.831215c91.944643 61.198771 143.589243 178.143762 106.397969 302.640943A256.123366 256.123366 0 0 1 588.490325 883.977013C407.302901 937.786358 241.952286 803.474588 241.952286 630.522955a265.107866 265.107866 0 0 1 121.518623-222.984882 19.531523 19.531523 0 0 0-4.427145-34.961426C173.689615 311.752231 37.196824 143.76486 24.175809-58.077149q-1.025405-15.804257-1.041681-31.868935c0-12.207202 12.028163-36.263527 24.072602-36.263526 198.749518 0.146486 371.196586 0.472012 547.712721 0.78126 0 0 26.644252-1.725284 26.644252 22.477528s-26.644252 21.972963-26.644252 21.972963c-135.53249-0.244144-253.909793-0.585946-403.537532-0.667327l-123.699643-0.113934q0.195315 10.498193 0.895195 20.817347c12.597832 194.826938 155.194223 360.519354 346.684525 402.919035l90.219358 19.987258a19.531523 19.531523 0 0 0 8.138135 0l89.812451-18.685157c193.687599-40.34887 338.546391-205.943629 351.990589-402.560956v-0.211592a19.531523 19.531523 0 0 0-19.352483-20.654585c-37.549352-0.26042-80.714017-0.472012-128.175617-0.634774 0 0-18.880472 0-18.880472-22.054344s18.880472-22.412422 18.880472-22.412423c65.560811 0.227868 122.950935 0.537117 169.045328 0.944024 11.393388 0.113934 23.926115 22.786776 23.926115 34.326651s-0.358078 22.575185-1.09051 33.740705zM594.854346 427.606712l-85.841041-37.126169-86.264225 35.807791a220.494614 220.494614 0 0 0-136.411409 204.267174c0 121.860425 99.15503 220.999178 220.999178 220.999178s221.064283-99.122477 221.064283-220.999178a220.966625 220.966625 0 0 0-133.546786-202.948796z"  horiz-adv-x="1024" />

    
    <glyph glyph-name="haoping" unicode="&#59021;" d="M270.443 419.166h-53.137v-410.824h53.137V419.166zM546.102 812.965c24.362 0 45.999-7.537 64.917-22.614 18.916-15.017 31.099-34.421 36.543-58.21l4.044-17.197c4.011-23.329 6.018-45.943 6.018-67.84 0-43.735-7.196-86.442-21.581-128.114l-2.838-8.254 226.737-1.033c16.738-0.516 32.644-5.245 47.72-14.189 15.076-8.941 27.228-20.835 36.456-35.683a102.882 102.882 0 0 0 12.898-30.611c2.635-10.833 3.528-21.983 2.666-33.445l-0.686-10.232c-0.057-0.46-2.695-15.765-7.912-45.914-6.477-36.456-13.069-71.423-19.775-104.898-21.323-106.389-39.696-177.954-55.115-214.697l-6.879-11.523c-2.98-6.536-7.595-13.154-13.843-19.863-6.192-6.65-13.154-12.467-20.894-17.453-15.134-9.572-31.583-14.96-49.352-16.164l-685.37 0.259c-10.204 0.286-18.744 3.439-25.623 9.457C67.41-29.173 64-21.781 64-13.067l0.344 453.558c0 8.886 3.153 16.479 9.457 22.784s13.901 9.457 22.784 9.457l162.162 0.086c11.982 0 28.001 6.448 48.064 19.345 20.635 13.242 40.669 30.265 60.102 51.075 21.668 23.159 38.981 47.345 51.934 72.57 14.846 28.89 22.642 56.779 23.387 83.661-0.227 2.35-0.344 5.387-0.344 9.115 0 28.773 10.175 53.367 30.525 73.773 20.348 20.406 44.909 30.61 73.686 30.61l0.001-0.002z"  horiz-adv-x="1024" />

    
    <glyph glyph-name="gou" unicode="&#59638;" d="M813.174 625.056l-400.789-400.789-203.074 202.958c-12.582 12.582-32.972 12.582-45.554 0s-12.582-32.972 0-45.554l248.629-248.512 446.343 446.343c12.582 12.582 12.582 32.972 0 45.554s-32.972 12.582-45.554 0z"  horiz-adv-x="1024" />

    
    <glyph glyph-name="paishe" unicode="&#58958;" d="M605.203 61.967l-4.979-0.047c1.698 0 3.35 0.018 4.979 0.047z m406.531 29.292l-0.842 577.748c2.811 14.158 1.767 29.849-3.809 43.593-4.068 10.025-9.971 17.598-16.751 22.371-5.295 4.006-11.365 6.282-17.925 6.282-10.279 0-19.917-5.555-27.257-14.672L760.535 565.958l-0.038 80.181-0.067-0.076v56.496c0 62.418-35.554 112.992-79.405 112.992h-42.184v0.54l-459.312-0.379v-0.327h-42.184c-41.78 0-76.018-45.914-79.167-104.21l0.333-668.623c6.467-53.153 39.033-93.587 78.234-93.587h42.184v-0.465l459.473 0.379v0.086h42.184c43.852 0 79.405 50.594 79.405 112.992v56.516l0.761-0.867-0.039 81.683L947.96 36.378c3.054-3.248 6.44-5.894 10.068-7.819 18.021-10.228 39.061-0.369 49.057 24.241 4.906 12.104 6.3 25.715 4.649 38.459zM680.187 701.898l0.001-0.669-66.116 0.613 66.115 0.056z m-541.722-0.461l24.274 0.021-24.274-0.225v0.204z m0.307-639.959v1.188l73.354-0.698c-52.978 0.946-69.475 17.674-73.391 75.461l-0.223 464.29 0.222-12.739c0 83.263 10.114 108.883 63.989 112.513l405.831 0.346c60.081-1.907 71.075-26.068 71.075-112.859l0.598 34.35 0.247-496.982-0.845 48.585c0-88.383-11.395-111.839-74.426-112.965l75.302 0.717 0.001-0.776-541.734-0.431zM760.648 331.76l-0.048 101.856 170.944 148.741 0.309-399.563L760.648 331.76zM212.126 61.967c1.628-0.028 3.281-0.047 4.979-0.047l-4.979 0.047z"  horiz-adv-x="1024" />

    
    <glyph glyph-name="tishi" unicode="&#58892;" d="M512-128a512 512 0 1 0 512 512 512.576 512.576 0 0 0-512-512z m0 960a448 448 0 1 1 448-448A448.512 448.512 0 0 1 512 832zM512 32a64 64 0 1 0 64 64 64.064 64.064 0 0 0-64-64z m0 64.032zM512 224a32 32 0 0 0-32 32V672a32 32 0 0 0 64 0v-416a32 32 0 0 0-32-32z"  horiz-adv-x="1024" />

    
    <glyph glyph-name="xihuan" unicode="&#58880;" d="M512-12.154l-4.784 0.905c-71.628 13.705-157.479 56.113-235.572 116.493-41.244 31.935-78.093 67.103-109.382 104.598-34.392 41.374-61.156 84.299-79.515 127.871-23.531 55.855-33.228 116.234-28.186 174.804 4.784 55.725 22.756 108.347 51.846 152.178 47.968 72.275 121.794 113.778 202.473 113.778 35.426 0 71.628-7.887 107.83-23.273 32.065-13.705 64-33.487 95.289-58.828 31.289 25.341 63.224 45.123 95.289 58.828 36.073 15.515 72.404 23.273 107.83 23.273 80.679 0 154.505-41.503 202.473-113.778 29.091-43.83 47.063-96.453 51.846-152.178 5.042-58.57-4.655-118.949-28.186-174.804-18.36-43.442-45.123-86.497-79.515-127.741-31.289-37.495-68.008-72.663-109.382-104.598-77.964-60.38-163.814-102.788-235.572-116.493l-4.784-1.034z"  horiz-adv-x="1024" />

    
    <glyph glyph-name="xihuan1" unicode="&#59503;" d="M523.733333 54.976l33.173334 32.576 99.690666 97.813333c70.976 69.632 120.32 117.973333 138.709334 135.893334 59.008 57.514667 93.248 121.28 99.626666 184.234666 6.250667 61.44-15.488 119.744-61.589333 164.672-44.992 43.84-98.88 61.909333-157.034667 52.906667-49.365333-7.616-101.034667-34.624-150.016-78.848a21.333333 21.333333 0 0 0-28.586666 0c-48.981333 44.224-100.650667 71.232-150.016 78.869333-58.154667 8.96-112.042667-9.088-157.034667-52.928-46.101333-44.928-67.84-103.210667-61.610667-164.693333 6.4-62.933333 40.64-126.72 99.648-184.213333a100207.573333 100207.573333 0 0 0 145.92-142.826667l24.256-23.765333L512 43.477333l11.733333 11.498667z m-11.733333-11.52l-1.493333-1.429333A2.133333 2.133333 0 0 0 512 42.666667c0.512 0 1.045333-0.213333 1.493333-0.64l-1.493333 1.450666z m157.781333 721.792c71.637333 11.093333 138.901333-11.477333 193.344-64.533333 55.317333-53.930667 81.834667-124.992 74.282667-199.530667-7.466667-73.642667-46.549333-146.368-112.32-210.474667-18.346667-17.898667-67.669333-66.218667-138.453333-135.637333-31.829333-31.232-65.706667-64.448-99.84-97.984L553.6 24.533333l-13.184-12.949333a40.554667 40.554667 0 0 0-56.832 0l-114.602667 112.64-24.213333 23.722667a677626.346667 677626.346667 0 0 1-145.856 142.762666C133.141333 354.816 94.08 427.52 86.613333 501.184c-7.552 74.538667 18.944 145.6 74.282667 199.530667 54.442667 53.056 121.706667 75.605333 193.344 64.533333 53.162667-8.213333 107.093333-34.688 157.781333-76.949333 50.709333 42.24 104.618667 68.736 157.781334 76.949333z"  horiz-adv-x="1024" />

    
    <glyph glyph-name="xitongtongzhi" unicode="&#58929;" d="M512 896c-281.6 0-512-230.4-512-512s230.4-512 512-512 512 230.4 512 512-230.4 512-512 512z m51.2-737.28c0-17.92-12.8-40.96-28.16-48.64-5.12-2.56-7.68-2.56-12.8-2.56-7.68 0-12.8 0-17.92 5.12-35.84 30.72-130.56 115.2-151.04 133.12h-97.28c-25.6 0-48.64 20.48-48.64 48.64v176.64c0 25.6 20.48 48.64 48.64 48.64h112.64c15.36 12.8 102.4 89.6 135.68 115.2 7.68 7.68 20.48 7.68 30.72 2.56 15.36-7.68 28.16-30.72 28.16-48.64v-430.08z m87.04 76.8c-2.56 0-7.68 2.56-10.24 5.12-5.12 5.12-5.12 15.36 0 23.04 30.72 33.28 46.08 69.12 43.52 102.4-2.56 51.2-43.52 87.04-43.52 87.04-7.68 5.12-7.68 15.36-2.56 23.04 5.12 7.68 15.36 7.68 23.04 2.56 0-2.56 48.64-46.08 53.76-110.08 2.56-43.52-12.8-84.48-51.2-128-5.12-2.56-7.68-5.12-12.8-5.12z m168.96 84.48c-10.24-53.76-35.84-107.52-76.8-158.72-2.56-2.56-7.68-5.12-12.8-5.12-2.56 0-7.68 0-10.24 2.56-7.68 5.12-7.68 15.36-2.56 23.04 38.4 48.64 61.44 94.72 69.12 143.36 7.68 38.4 2.56 76.8-10.24 112.64-23.04 64-66.56 102.4-66.56 102.4-7.68 5.12-7.68 15.36-2.56 23.04 5.12 7.68 15.36 7.68 23.04 2.56 2.56 0 48.64-43.52 74.24-115.2 15.36-43.52 17.92-87.04 15.36-130.56z"  horiz-adv-x="1024" />

    
    <glyph glyph-name="weibiaoti-" unicode="&#58895;" d="M880.64-25.6h-286.7c-0.006-0-0.013-0-0.020-0-22.622 0-40.96 18.338-40.96 40.96 0 0 0 0 0 0v286.74c0.012 22.613 18.346 40.94 40.96 40.94 0.007 0 0.014-0 0.022-0l286.698 0c0 0 0 0 0 0 22.614 0 40.948-18.327 40.96-40.938l0-286.742c0-22.622-18.338-40.96-40.96-40.96 0 0 0 0 0 0zM880.64 302.1h-286.7v-286.74h286.7v286.74zM880.64 424.96h-286.7c-0.006-0-0.013-0-0.020-0-22.622 0-40.96 18.338-40.96 40.96 0 0 0 0 0 0v286.72c0 22.651 18.33 40.96 40.98 40.96h286.7c0 0 0 0 0 0 22.622 0 40.96-18.338 40.96-40.96v-286.72c0-22.622-18.338-40.96-40.96-40.96zM880.64 752.64h-286.7v-286.72h286.7v286.72zM430.080-25.6h-286.72c-22.622 0-40.96 18.338-40.96 40.96 0 0 0 0 0 0v286.74c0.012 22.613 18.346 40.94 40.96 40.94 0 0 0-0 0-0l286.72-0c0 0 0 0 0 0 22.614 0 40.948-18.327 40.96-40.938l0-286.742c0-22.622-18.338-40.96-40.96-40.96zM430.080 302.1h-286.72v-286.74h286.72v286.74zM430.080 424.96h-286.72c-22.622 0-40.96 18.338-40.96 40.96v286.72c0 22.622 18.338 40.96 40.96 40.96 0 0 0 0 0 0h286.72c22.622 0 40.96-18.338 40.96-40.96v-286.72c0-22.622-18.338-40.96-40.96-40.96zM430.080 752.64h-286.72v-286.72h286.72v286.72z"  horiz-adv-x="1024" />

    
    <glyph glyph-name="down-trangle" unicode="&#58896;" d="M530.877 222.173l285.857 285.857c10.929 10.929 10.929 29.334 0 40.837-10.929 10.929-29.334 10.929-40.837 0l-265.725-265.725-264.573 264.573c-10.929 10.929-29.334 10.929-40.837 0-10.929-10.929-10.929-29.334 0-40.837l284.703-284.703c12.077-11.502 29.908-11.502 41.418 0z"  horiz-adv-x="1024" />

    
    <glyph glyph-name="Aa" unicode="&#60238;" d="M0 896M82.6368-39.253333a17.089422 17.089422 0 0 0-16.349867 22.050133l245.76 812.305067a17.032533 17.032533 0 0 0 21.2992 11.400533 17.021156 17.021156 0 0 0 11.3664-21.265067l-245.76-812.373333A17.032533 17.032533 0 0 0 82.6368-39.253333zM586.3424-39.253333a17.214578 17.214578 0 0 0-16.349867 12.117333l-245.76 812.3392a17.055289 17.055289 0 1 0 32.6656 9.864533l245.794134-812.3392a16.9984 16.9984 0 0 0-16.349867-21.981866zM796.535467-23.7568c-29.661867 0-59.016533 4.983467-84.411734 16.247467-43.997867 19.592533-68.573867 56.183467-69.12 103.1168-0.477867 34.645333 11.9808 63.829333 36.932267 86.7328 78.1312 71.714133 255.522133 55.261867 263.0656 54.510933a17.021156 17.021156 0 0 0 15.325867-18.602667 17.009778 17.009778 0 0 0-18.602667-15.325866c-1.672533 0.136533-169.8816 15.735467-236.714667-45.738667-17.7152-16.2816-26.180267-36.283733-25.873066-61.1328 0.443733-33.723733 16.896-58.0608 48.913066-72.328533 62.976-27.989333 162.338133-7.7824 202.683734 27.682133a17.066667 17.066667 0 0 0 22.528-25.634133c-33.28-29.320533-94.754133-49.493333-154.7264-49.527467zM513.365333 172.509867h-341.333333a17.066667 17.066667 0 0 0 0 34.133333h341.333333a17.066667 17.066667 0 0 0 0-34.133333zM939.997867-15.223467c-9.386667 0-17.066667 7.645867-17.066667 17.066667V318.122667c-12.458667 22.459733-30.0032 36.488533-53.6576 43.008-79.4624 21.7088-194.730667-50.312533-195.822933-50.9952a17.1008 17.1008 0 0 0-23.552 5.290666 17.089422 17.089422 0 0 0 5.3248 23.552c5.188267 3.310933 129.262933 80.657067 223.061333 55.022934 34.133333-9.3184 60.0064-30.8224 76.936533-63.829334 1.2288-2.389333 1.877333-5.051733 1.877334-7.816533v-320.580267a17.089422 17.089422 0 0 0-17.1008-16.9984z"  horiz-adv-x="1024" />

    
    <glyph glyph-name="uninterested" unicode="&#58882;" d="M778.95347-108.48555099999999c-5.823636 0-11.649318 0-17.472953 0-12.078083 5.164626-24.709775 9.324366-36.137035 15.661701-68.017116 37.712927-135.792733 75.857688-203.51309 114.099664-5.748934 3.247974-10.048867 3.28072-15.783475 0.017396-41.789779-23.778566-83.414805-47.892777-125.802194-70.570265-37.706787-20.173458-72.528873-45.972031-113.842815-59.207473-5.824659 0-11.649318 0-17.473977 0-2.105964 0.722454-4.168949 1.635243-6.327102 2.140757-36.148291 8.470929-59.876716 42.643216-54.135968 79.345116 13.727653 87.767949 27.767414 175.48678 42.067095 263.162632 1.038656 6.374174-0.521886 10.171664-4.668323 14.437827-22.547529 23.199375-44.86072 46.6249-67.275219 69.952188-37.655621 39.191604-75.429946 78.269621-112.950492 117.590162-19.548218 20.48659-25.203008 45.062312-17.140379 71.814606 7.77508 25.795503 25.808806 42.090631 52.208059 48.257074 9.725502 2.272763 19.745716 3.292999 29.641087 4.824889 72.788793 11.269671 145.558144 22.661116 218.396055 33.600259 8.433066 1.266853 12.487406 5.157463 15.906272 12.621459 34.574447 75.474972 69.579705 150.751423 104.310717 226.154763 7.143701 15.509229 17.379832 28.115338 32.742728 35.731806 7.427156 3.681856 15.642259 5.773494 23.50125 8.582469 5.823636 0 11.649318 0 17.472953 0 32.837896-6.656607 50.04172-28.931936 63.044872-58.253752 31.82073-71.750137 65.563228-142.645814 98.333586-213.978443 2.799766-6.093788 6.051833-9.339716 13.21293-10.420327 77.942163-11.762905 155.770739-24.275893 233.737462-35.867906 24.406876-3.628644 45.680389-11.389398 59.876716-32.893154 19.150152-29.002544 15.030321-65.587787-10.620895-92.315522-59.364039-61.856813-118.838595-123.608226-178.033789-185.630814-2.863211-2.99931-5.430686-8.463766-4.835122-12.262278 13.423731-85.527932 26.714432-171.083493 41.337477-256.408811 8.405437-49.039903-21.255093-79.44847-49.691749-87.11508C785.648962-106.33149100000003 782.31503-107.45815100000004 778.95347-108.48555099999999zM769.575892-36.519496000000004c-0.196475 4.233418-0.058328 7.072069-0.496304 9.8176-13.580297 84.839247-26.979468 169.71124-40.981367 254.482949-4.516874 27.340695 2.39863 50.117444 21.661346 70.022797 58.491159 60.439534 116.635417 121.216759 174.891216 181.88449 2.51631 2.62171 4.800329 5.465478 8.112772 9.255805-82.09474 12.755512-162.096818 25.8876-242.342444 37.316907-33.130561 4.716418-55.631018 19.784602-69.536726 50.780547-33.180703 73.967642-67.796082 147.291624-101.850689 220.865293-1.401929 3.025916-2.99931 5.958712-5.177929 10.266831-2.298346-4.748141-3.880377-7.887644-5.354961-11.076266-34.846646-75.343989-69.726038-150.673651-104.496959-226.052432-10.474562-22.708188-27.474748-37.986149-52.150754-42.058908-63.1032-10.414187-126.378316-19.778462-189.5818-29.588899-21.837354-3.390213-43.663452-6.852058-67.470671-10.593266 3.942799-4.252861 6.459109-7.055696 9.064446-9.768481 58.497299-60.883649 116.931153-121.827673 175.551248-182.594665 17.371646-18.006096 25.015743-39.275515 21.167089-63.800072-11.618619-74.031087-23.846104-147.967006-35.780925-221.947951-2.449795-15.186887-4.66116-30.411637-7.286963-47.610344 5.002944 2.620687 8.117888 4.152577 11.142781 5.850242 68.772316 38.569434 137.647987 76.957743 206.240201 115.844401 26.319435 14.920828 51.697429 14.980179 78.037331 0.037862 68.301596-38.744419 136.891763-76.981279 205.377554-115.402333C761.616616-32.44264399999997 765.016039-34.12700600000005 769.575892-36.519496000000004z"  horiz-adv-x="1024" />

    
    <glyph glyph-name="shizhong" unicode="&#58932;" d="M512-30.9C282.8-30.9 97.1 154.8 97.1 384S282.8 798.9 512 798.9 926.9 613.1 926.9 384c0-229.2-185.7-414.9-414.9-414.9z m0 782.8c-203.2 0-367.9-164.7-367.9-367.9S308.8 16.1 512 16.1 879.9 180.8 879.9 384 715.2 751.9 512 751.9zM724.5 280c-5.7-12.2-20.3-17.5-32.5-11.8l-195 65.2c-9.3 4.4-14.5 13.8-14 23.5-0.1 1-0.6 1.8-0.6 2.8V629c0 13.5 11 24.5 24.5 24.5s24.5-10.9 24.5-24.5v-255.9l181.3-60.6c12.3-5.7 17.6-20.3 11.8-32.5z m0 0"  horiz-adv-x="1024" />

    
    <glyph glyph-name="seting" unicode="&#58893;" d="M351.616 151.48800000000006c3.072 0 6.208-0.896 8.896-2.624 28.544-18.432 59.584-31.36 92.352-38.4 6.528-1.408 11.52-6.592 12.736-13.184l8.256-45.568a16.448 16.448 0 0 1 16.192-13.504h43.84a16.448 16.448 0 0 1 16.192 13.504l8.256 45.568a16.576 16.576 0 0 0 12.736 13.184c32.768 7.04 63.808 19.968 92.352 38.4a16.32 16.32 0 0 0 18.304-0.32l38.208-26.432c6.4-4.416 15.552-3.584 20.992 1.92l30.976 30.976a16.384 16.384 0 0 1 1.856 20.992l-26.432 38.208a16.576 16.576 0 0 0-0.32 18.304c18.432 28.544 31.36 59.584 38.4 92.352a16.512 16.512 0 0 0 13.184 12.736l45.568 8.256a16.448 16.448 0 0 1 13.504 16.192v43.84a16.448 16.448 0 0 1-13.504 16.192l-45.568 8.256a16.512 16.512 0 0 0-13.184 12.736 277.504 277.504 0 0 1-38.4 92.352 16.448 16.448 0 0 0 0.32 18.304l26.432 38.208a16.384 16.384 0 0 1-1.856 20.992l-30.976 30.976a16.832 16.832 0 0 1-20.992 1.92l-38.208-26.432a16.576 16.576 0 0 0-18.304-0.32 276.928 276.928 0 0 1-92.352 38.4 16.512 16.512 0 0 0-12.736 13.184l-8.256 45.568a16.448 16.448 0 0 1-16.192 13.504h-43.776a16.448 16.448 0 0 1-16.192-13.504l-8.32-45.568a16.512 16.512 0 0 0-12.736-13.184c-32.768-7.04-63.808-19.968-92.352-38.4a16.32 16.32 0 0 0-18.304 0.32l-38.208 26.432a16.704 16.704 0 0 1-20.992-1.92l-30.976-30.912a16.512 16.512 0 0 1-1.92-20.992l26.432-38.208a16.576 16.576 0 0 0 0.32-18.304 278.272 278.272 0 0 1-38.4-92.352 16.512 16.512 0 0 0-13.12-12.736l-45.568-8.32a16.448 16.448 0 0 1-13.504-16.192v-43.84c0-7.936 5.696-14.784 13.504-16.192l45.568-8.256a16.512 16.512 0 0 0 13.12-12.736c7.04-32.704 19.968-63.808 38.4-92.352 3.648-5.568 3.52-12.8-0.32-18.304l-26.432-38.208a16.384 16.384 0 0 1 1.92-20.992l30.976-30.976a16.896 16.896 0 0 1 21.056-1.92l38.208 26.432a16 16 0 0 0 9.344 2.944m182.272-146.176h-43.776a49.408 49.408 0 0 0-48.576 40.576l-6.336 34.944a307.328 307.328 0 0 0-83.072 34.56l-29.312-20.288a50.368 50.368 0 0 0-63.04 5.696l-30.976 30.976a49.408 49.408 0 0 0-5.696 63.04l20.288 29.312A309.248 309.248 0 0 0 208.896 307.20000000000005l-35.008 6.272a49.408 49.408 0 0 0-40.576 48.64v43.776c0 23.872 17.088 44.352 40.576 48.576l34.944 6.336c7.36 29.184 18.944 57.024 34.496 83.072l-20.288 29.312a49.408 49.408 0 0 0 5.696 63.04l30.976 30.976a50.368 50.368 0 0 0 63.04 5.696l29.312-20.288a309.376 309.376 0 0 0 83.072 34.56l6.336 34.944a49.472 49.472 0 0 0 48.64 40.576h43.84c23.872 0 44.352-17.088 48.576-40.576l6.336-34.944c29.12-7.36 56.96-18.944 83.072-34.56l29.312 20.288a50.368 50.368 0 0 0 63.04-5.696l30.976-30.976a49.408 49.408 0 0 0 5.696-63.04l-20.288-29.312c15.552-26.048 27.136-53.888 34.496-83.072l34.944-6.336a49.408 49.408 0 0 0 40.576-48.576v-43.84a49.344 49.344 0 0 0-40.576-48.576l-34.944-6.336a310.08 310.08 0 0 0-34.496-83.072l20.288-29.312a49.408 49.408 0 0 0-5.696-63.04l-30.976-30.976a49.088 49.088 0 0 0-63.04-5.696l-29.312 20.288a309.376 309.376 0 0 0-83.072-34.56l-6.336-34.944a49.472 49.472 0 0 0-48.64-40.512M512 499.264c-63.552 0-115.264-51.712-115.264-115.264 0-63.552 51.712-115.264 115.264-115.264S627.264 320.448 627.264 384c0 63.552-51.712 115.264-115.264 115.264m0-263.424c-81.664 0-148.16 66.496-148.16 148.16S430.336 532.1600000000001 512 532.1600000000001 660.16 465.728 660.16 384 593.664 235.84000000000003 512 235.84000000000003"  horiz-adv-x="1024" />

    
    <glyph glyph-name="mjiantou-copy" unicode="&#59179;" d="M664.13270595 384l-265.01218847 264.99563945 23.04005495 23.05660397 288.05287992-288.05287993-288.05287991-288.05287991-23.04005496 23.05660397z"  horiz-adv-x="1024" />

    


  </font>
</defs>
</svg>
